# xmcd CD database file
#
# Track frame offsets:
#	150
#	14425
#	28506
#	40432
#	52395
#	68414
#	84754
#	96414
#	111245
#	128837
#	141263
#	153982
#	169431
#	184727
#	201884
#	212821
#	225662
#	240768
#	252140
#	268312
#
# Disc length: 3773 seconds
#
# Revision: 0
# Processed by: cddbd v1.5.2PL0 Copyright (c) Steve Scherf et al.
# Submitted via: CDex 1.79
#
DISCID=1c0ebb14
DTITLE=Dee Reilly - 20 Of My Favorite Nashville Songs
DYEAR=1900
DGENRE=Country
TTITLE0=Sixteenth Of May
TTITLE1=Just A Good Ol` Jukebox
TTITLE2=I Came Straight To You
TTITLE3=That`s Why I Like Your Love
TTITLE4=Past The Point Of Rescue
TTITLE5=Ireland
TTITLE6=Down To My Last Cigarette
TTITLE7=Pack Your Lies And Go
TTITLE8=Why Can`t We
TTITLE9=Woman Behind The Wheel
TTITLE10=Our Love
TTITLE11=The Meaning Of The Word
TTITLE12=Where The Lights Are Low
TTITLE13=Sonny`s Dream
TTITLE14=San Antonio Rose
TTITLE15=I`m Living In Two Worlds
TTITLE16=Is There A Way
TTITLE17=Foolin` Around
TTITLE18=All Of My Life
TTITLE19=God Bless The USA
EXTD=
EXTT0=
EXTT1=
EXTT2=
EXTT3=
EXTT4=
EXTT5=
EXTT6=
EXTT7=
EXTT8=
EXTT9=
EXTT10=
EXTT11=
EXTT12=
EXTT13=
EXTT14=
EXTT15=
EXTT16=
EXTT17=
EXTT18=
EXTT19=
PLAYORDER=
